<?xml version="1.0" encoding="UTF-8" standalone="no"?>
<!DOCTYPE svg PUBLIC "-//W3C//DTD SVG 1.1//EN"
 "http://www.w3.org/Graphics/SVG/1.1/DTD/svg11.dtd">
<!-- Generated by graphviz version 2.43.0 (0)
 -->
<!-- Title: sourcetree Pages: 1 -->
<svg width="319pt" height="188pt"
 viewBox="0.00 0.00 319.00 188.00" xmlns="http://www.w3.org/2000/svg" xmlns:xlink="http://www.w3.org/1999/xlink">
<g id="graph0" class="graph" transform="scale(1 1) rotate(0) translate(4 184)">
<title>sourcetree</title>
<polygon fill="white" stroke="transparent" points="-4,4 -4,-184 315,-184 315,4 -4,4"/>
<!-- mulle&#45;atinit -->
<g id="node1" class="node">
<title>mulle&#45;atinit</title>
<polygon fill="yellow" stroke="black" points="159.5,-180 60.5,-180 60.5,-144 159.5,-144 159.5,-180"/>
<text text-anchor="middle" x="110" y="-158.3" font-family="Times,serif" font-size="14.00">mulle&#45;atinit</text>
</g>
<!-- mulle&#45;dlfcn -->
<g id="node2" class="node">
<title>mulle&#45;dlfcn</title>
<polygon fill="lightgrey" stroke="black" points="98,-108 2,-108 2,-72 98,-72 98,-108"/>
<text text-anchor="middle" x="50" y="-86.3" font-family="Times,serif" font-size="14.00">mulle&#45;dlfcn</text>
</g>
<!-- mulle&#45;atinit&#45;&gt;mulle&#45;dlfcn -->
<g id="edge1" class="edge">
<title>mulle&#45;atinit&#45;&gt;mulle&#45;dlfcn</title>
<path fill="none" stroke="black" d="M95.17,-143.7C87.98,-135.3 79.2,-125.07 71.31,-115.86"/>
<polygon fill="black" stroke="black" points="73.83,-113.42 64.66,-108.1 68.51,-117.97 73.83,-113.42"/>
</g>
<!-- mulle&#45;thread -->
<g id="node3" class="node">
<title>mulle&#45;thread</title>
<polygon fill="lightgrey" stroke="black" points="224,-108 116,-108 116,-72 224,-72 224,-108"/>
<text text-anchor="middle" x="170" y="-86.3" font-family="Times,serif" font-size="14.00">mulle&#45;thread</text>
</g>
<!-- mulle&#45;atinit&#45;&gt;mulle&#45;thread -->
<g id="edge2" class="edge">
<title>mulle&#45;atinit&#45;&gt;mulle&#45;thread</title>
<path fill="none" stroke="black" d="M124.83,-143.7C132.02,-135.3 140.8,-125.07 148.69,-115.86"/>
<polygon fill="black" stroke="black" points="151.49,-117.97 155.34,-108.1 146.17,-113.42 151.49,-117.97"/>
</g>
<!-- dlfcn&#45;win32 -->
<g id="node4" class="node">
<title>dlfcn&#45;win32</title>
<polygon fill="lightgrey" stroke="black" points="100,-36 0,-36 0,0 100,0 100,-36"/>
<text text-anchor="middle" x="50" y="-14.3" font-family="Times,serif" font-size="14.00">dlfcn&#45;win32</text>
</g>
<!-- mulle&#45;dlfcn&#45;&gt;dlfcn&#45;win32 -->
<g id="edge3" class="edge">
<title>mulle&#45;dlfcn&#45;&gt;dlfcn&#45;win32</title>
<path fill="none" stroke="black" d="M50,-71.7C50,-63.98 50,-54.71 50,-46.11"/>
<polygon fill="black" stroke="black" points="53.5,-46.1 50,-36.1 46.5,-46.1 53.5,-46.1"/>
</g>
<!-- mintomic -->
<g id="node5" class="node">
<title>mintomic</title>
<polygon fill="lightgrey" stroke="black" points="206.5,-36 123.5,-36 123.5,0 206.5,0 206.5,-36"/>
<text text-anchor="middle" x="165" y="-14.3" font-family="Times,serif" font-size="14.00">mintomic</text>
</g>
<!-- mulle&#45;thread&#45;&gt;mintomic -->
<g id="edge4" class="edge">
<title>mulle&#45;thread&#45;&gt;mintomic</title>
<path fill="none" stroke="black" d="M168.76,-71.7C168.21,-63.98 167.55,-54.71 166.94,-46.11"/>
<polygon fill="black" stroke="black" points="170.43,-45.83 166.22,-36.1 163.44,-46.33 170.43,-45.83"/>
</g>
<!-- mulle&#45;c11 -->
<g id="node6" class="node">
<title>mulle&#45;c11</title>
<polygon fill="lightgrey" stroke="black" points="311,-36 225,-36 225,0 311,0 311,-36"/>
<text text-anchor="middle" x="268" y="-14.3" font-family="Times,serif" font-size="14.00">mulle&#45;c11</text>
</g>
<!-- mulle&#45;thread&#45;&gt;mulle&#45;c11 -->
<g id="edge5" class="edge">
<title>mulle&#45;thread&#45;&gt;mulle&#45;c11</title>
<path fill="none" stroke="black" d="M193.97,-71.88C206.55,-62.89 222.13,-51.76 235.75,-42.03"/>
<polygon fill="black" stroke="black" points="237.83,-44.85 243.93,-36.19 233.76,-39.15 237.83,-44.85"/>
</g>
</g>
</svg>
