<?xml version="1.0" encoding="UTF-8" standalone="no"?>
<!DOCTYPE svg PUBLIC "-//W3C//DTD SVG 1.1//EN"
 "http://www.w3.org/Graphics/SVG/1.1/DTD/svg11.dtd">
<!-- Generated by graphviz version 2.43.0 (0)
 -->
<!-- Title: sourcetree Pages: 1 -->
<svg width="230pt" height="116pt"
 viewBox="0.00 0.00 230.00 116.00" xmlns="http://www.w3.org/2000/svg" xmlns:xlink="http://www.w3.org/1999/xlink">
<g id="graph0" class="graph" transform="scale(1 1) rotate(0) translate(4 112)">
<title>sourcetree</title>
<polygon fill="white" stroke="transparent" points="-4,4 -4,-112 226,-112 226,4 -4,4"/>
<!-- mulle&#45;atinit -->
<g id="node1" class="node">
<title>mulle&#45;atinit</title>
<polygon fill="yellow" stroke="black" points="157.5,-108 58.5,-108 58.5,-72 157.5,-72 157.5,-108"/>
<text text-anchor="middle" x="108" y="-86.3" font-family="Times,serif" font-size="14.00">mulle&#45;atinit</text>
</g>
<!-- mulle&#45;dlfcn -->
<g id="node2" class="node">
<title>mulle&#45;dlfcn</title>
<g id="a_node2"><a xlink:href="https://github.com/mulle-core/mulle-dlfcn" xlink:title="mulle&#45;dlfcn">
<polygon fill="lightgrey" stroke="black" points="96,-36 0,-36 0,0 96,0 96,-36"/>
<text text-anchor="middle" x="48" y="-14.3" font-family="Times,serif" font-size="14.00">mulle&#45;dlfcn</text>
</a>
</g>
</g>
<!-- mulle&#45;atinit&#45;&gt;mulle&#45;dlfcn -->
<g id="edge1" class="edge">
<title>mulle&#45;atinit&#45;&gt;mulle&#45;dlfcn</title>
<path fill="none" stroke="black" d="M93.17,-71.7C85.98,-63.3 77.2,-53.07 69.31,-43.86"/>
<polygon fill="black" stroke="black" points="71.83,-41.42 62.66,-36.1 66.51,-45.97 71.83,-41.42"/>
</g>
<!-- mulle&#45;thread -->
<g id="node3" class="node">
<title>mulle&#45;thread</title>
<g id="a_node3"><a xlink:href="https://github.com/mulle-concurrent/mulle-thread" xlink:title="mulle&#45;thread">
<polygon fill="lightgrey" stroke="black" points="222,-36 114,-36 114,0 222,0 222,-36"/>
<text text-anchor="middle" x="168" y="-14.3" font-family="Times,serif" font-size="14.00">mulle&#45;thread</text>
</a>
</g>
</g>
<!-- mulle&#45;atinit&#45;&gt;mulle&#45;thread -->
<g id="edge2" class="edge">
<title>mulle&#45;atinit&#45;&gt;mulle&#45;thread</title>
<path fill="none" stroke="black" d="M122.83,-71.7C130.02,-63.3 138.8,-53.07 146.69,-43.86"/>
<polygon fill="black" stroke="black" points="149.49,-45.97 153.34,-36.1 144.17,-41.42 149.49,-45.97"/>
</g>
</g>
</svg>
